<svg width="48" height="48" viewBox="0 0 48 48" fill="none" xmlns="http://www.w3.org/2000/svg">
<path d="M41.251 5.25H6.75098C5.92129 5.25 5.25098 5.92031 5.25098 6.75V41.25C5.25098 42.0797 5.92129 42.75 6.75098 42.75H41.251C42.0807 42.75 42.751 42.0797 42.751 41.25V6.75C42.751 5.92031 42.0807 5.25 41.251 5.25ZM36.9197 16.1953H33.9244C31.576 16.1953 31.1213 17.3109 31.1213 18.9516V22.5656H36.7275L35.9963 28.2234H31.1213V42.75H25.276V28.2281H20.3869V22.5656H25.276V18.3937C25.276 13.5516 28.2338 10.9125 32.5557 10.9125C34.6275 10.9125 36.4041 11.0672 36.9244 11.1375V16.1953H36.9197Z" fill="#E4DAD7"/>
</svg>
