<svg width="48" height="48" viewBox="0 0 48 48" fill="none" xmlns="http://www.w3.org/2000/svg">
<path d="M23.9996 13.0047C17.9192 13.0047 13.0121 17.9119 13.0121 23.9922C13.0121 30.0726 17.9192 34.9797 23.9996 34.9797C30.0799 34.9797 34.9871 30.0726 34.9871 23.9922C34.9871 17.9119 30.0799 13.0047 23.9996 13.0047ZM23.9996 31.1333C20.0674 31.1333 16.8585 27.9244 16.8585 23.9922C16.8585 20.0601 20.0674 16.8511 23.9996 16.8511C27.9317 16.8511 31.1406 20.0601 31.1406 23.9922C31.1406 27.9244 27.9317 31.1333 23.9996 31.1333ZM35.4371 9.994C34.0174 9.994 32.871 11.1404 32.871 12.5601C32.871 13.9797 34.0174 15.1261 35.4371 15.1261C36.8567 15.1261 38.0031 13.9851 38.0031 12.5601C38.0036 12.223 37.9375 11.8891 37.8087 11.5776C37.6799 11.2661 37.4909 10.983 37.2525 10.7446C37.0141 10.5063 36.7311 10.3173 36.4196 10.1885C36.108 10.0597 35.7742 9.99358 35.4371 9.994ZM45.4174 23.9922C45.4174 21.0351 45.4442 18.1047 45.2781 15.1529C45.1121 11.7244 44.3299 8.6815 41.8228 6.17436C39.3103 3.66186 36.2728 2.88508 32.8442 2.719C29.8871 2.55293 26.9567 2.57972 24.0049 2.57972C21.0478 2.57972 18.1174 2.55293 15.1656 2.719C11.7371 2.88508 8.6942 3.66722 6.18706 6.17436C3.67456 8.68686 2.89777 11.7244 2.7317 15.1529C2.56563 18.1101 2.59241 21.0404 2.59241 23.9922C2.59241 26.944 2.56563 29.8797 2.7317 32.8315C2.89777 36.2601 3.67991 39.3029 6.18706 41.8101C8.69956 44.3226 11.7371 45.0994 15.1656 45.2654C18.1228 45.4315 21.0531 45.4047 24.0049 45.4047C26.9621 45.4047 29.8924 45.4315 32.8442 45.2654C36.2728 45.0994 39.3156 44.3172 41.8228 41.8101C44.3353 39.2976 45.1121 36.2601 45.2781 32.8315C45.4496 29.8797 45.4174 26.9494 45.4174 23.9922ZM40.7031 36.6244C40.3121 37.5994 39.8406 38.3279 39.0853 39.0779C38.3299 39.8333 37.6067 40.3047 36.6317 40.6958C33.8138 41.8154 27.1228 41.5636 23.9996 41.5636C20.8763 41.5636 14.1799 41.8154 11.3621 40.7011C10.3871 40.3101 9.65849 39.8386 8.90849 39.0833C8.15313 38.3279 7.6817 37.6047 7.29063 36.6297C6.17634 33.8065 6.42813 27.1154 6.42813 23.9922C6.42813 20.869 6.17634 14.1726 7.29063 11.3547C7.6817 10.3797 8.15313 9.65115 8.90849 8.90115C9.66384 8.15115 10.3871 7.67436 11.3621 7.28329C14.1799 6.169 20.8763 6.42079 23.9996 6.42079C27.1228 6.42079 33.8192 6.169 36.6371 7.28329C37.6121 7.67436 38.3406 8.14579 39.0906 8.90115C39.846 9.6565 40.3174 10.3797 40.7085 11.3547C41.8228 14.1726 41.571 20.869 41.571 23.9922C41.571 27.1154 41.8228 33.8065 40.7031 36.6244Z" fill="#E4DAD7"/>
</svg>
